<?xml version="1.0" encoding="utf-8"?>
<!-- Generator: Adobe Illustrator 24.0.2, SVG Export Plug-In . SVG Version: 6.00 Build 0)  -->
<svg version="1.1" id="Layer_1" xmlns="http://www.w3.org/2000/svg" xmlns:xlink="http://www.w3.org/1999/xlink" x="0px" y="0px"
	 viewBox="0 0 200 200" style="enable-background:new 0 0 200 200;" xml:space="preserve">
<title>pinterest-icon</title>
<path d="M104.8,0C48.5,0,20,39.1,20,71.8c0,5.8,0.7,11.6,2.2,17.2c3.3,12.2,10.6,22.1,22.1,26.7c2.7,1.1,5.2,0,6-2.9
	c0.5-2,1.8-7.1,2.4-9.2c0.8-2.9,0.5-3.9-1.7-6.4c-3-3.4-5.2-7.5-6.5-11.9c-1-3.5-1.4-7.1-1.4-10.7c0-29,22.5-55,58.5-55
	c31.9,0,49.4,18.9,49.4,44c0,7.1-0.7,14.2-2.2,21.2c-5,23-18,39.9-35.4,39.9c-12.4,0-21.7-9.9-18.8-22.1c1.7-6.9,4.2-14.1,6.3-20.9
	c2.3-7.4,4.2-14.4,4.2-19.9c0-9.4-5.2-17.2-16-17.2c-12.7,0-22.9,12.7-22.9,29.7c0,2.9,0.3,5.8,0.8,8.6c0.6,3.3,1.6,6.5,3,9.6
	c0,0-13,53.2-15.3,62.6c-4.5,18.6-0.7,41.4-0.4,43.7c0.2,0.9,1,1.4,1.9,1.3c0.4-0.1,0.7-0.3,0.9-0.6c1.2-1.5,16.3-19.6,21.4-37.6
	c1.5-5.1,8.3-31.6,8.3-31.6c4.1,7.6,16.2,14.3,29,14.3c31.1,0,54-22.3,61.5-55c1.7-7.8,2.6-15.7,2.6-23.7C180,31.7,150.2,0,104.8,0z
	"/>
</svg>
